# xmcd
# 
# Track frame offsets:
#     150
#     30112
#     39620
#     58767
#     72822
#     108480
#     120225
#     133840
#     172125
#     190760
#     219985
# 
# Disc length: 3366
# 
# Revision: 5
# Processed by: cddbd v1.5.2PL0 Copyright (c) Steve Scherf et al.
# Submitted via: fre:ac v1.0.17
# 
DISCID=960d240b
DTITLE=Gary Moore - Blues For Greeny
DYEAR=1995
DGENRE=Blues
TTITLE0=If You Be My Baby
TTITLE1=Long Grey Mare
TTITLE2=Merry Go Round
TTITLE3=I Loved Another Woman
TTITLE4=Need Your Love So Bad
TTITLE5=The Same Way
TTITLE6=The Supernatural
TTITLE7=Driftin'
TTITLE8=Showbiz Blues
TTITLE9=Love That Burns
TTITLE10=Looking For Somebody
EXTD=
EXTT0=
EXTT1=
EXTT2=
EXTT3=
EXTT4=
EXTT5=
EXTT6=
EXTT7=
EXTT8=
EXTT9=
EXTT10=
PLAYORDER=
